<?xml version="1.0" standalone="no"?>
<!DOCTYPE svg PUBLIC "-//W3C//DTD SVG 20010904//EN"
 "http://www.w3.org/TR/2001/REC-SVG-20010904/DTD/svg10.dtd">
<svg version="1.0" xmlns="http://www.w3.org/2000/svg"
 width="16.000000pt" height="16.000000pt" viewBox="0 0 16 16"
 preserveAspectRatio="xMidYMid meet">
<g transform="translate(0.000000,16.000000) scale(0.005161,-0.005161)"
fill="#000000" stroke="none">
<path d="M1533 3078 c-5 -7 -74 -143 -153 -301 -117 -235 -141 -290 -129 -298
18 -11 580 -11 598 0 12 8 -13 65 -135 307 -82 164 -154 299 -160 301 -6 2
-15 -2 -21 -9z"/>
<path d="M1122 2247 c-24 -29 -292 -579 -287 -587 10 -16 605 -13 605 3 0 20
-284 586 -297 591 -6 3 -16 -1 -21 -7z"/>
<path d="M1954 2252 c-13 -9 -294 -573 -294 -589 0 -16 595 -19 605 -3 6 9
-277 584 -293 594 -4 2 -13 2 -18 -2z"/>
<path d="M564 1139 c-80 -160 -143 -298 -140 -305 4 -12 57 -14 293 -14 158 0
294 4 302 9 11 7 -18 72 -134 305 -83 166 -154 296 -162 296 -7 0 -77 -128
-159 -291z"/>
<path d="M2215 1134 c-116 -233 -145 -298 -134 -305 8 -5 144 -9 302 -9 236 0
289 2 293 14 7 19 -283 596 -299 596 -8 0 -79 -130 -162 -296z"/>
<path d="M1392 1132 c-78 -158 -142 -290 -142 -294 0 -5 135 -8 300 -8 165 0
300 3 300 8 0 4 -64 136 -142 294 -92 186 -148 288 -158 288 -10 0 -66 -102
-158 -288z"/>
<path d="M147 306 c-81 -162 -147 -297 -147 -300 0 -3 139 -6 310 -6 171 0
310 2 310 5 0 3 -66 138 -147 300 -96 191 -153 295 -163 295 -10 0 -67 -104
-163 -294z"/>
<path d="M1122 587 c-10 -13 -292 -576 -292 -583 0 -2 138 -4 306 -4 240 0
305 3 302 13 -14 42 -285 577 -295 581 -6 3 -16 -1 -21 -7z"/>
<path d="M1954 592 c-9 -7 -294 -574 -294 -586 0 -3 137 -6 305 -6 168 0 305
2 305 4 0 9 -292 586 -299 590 -4 3 -11 2 -17 -2z"/>
<path d="M2627 305 c-81 -162 -147 -297 -147 -300 0 -3 140 -5 310 -5 171 0
310 3 310 6 0 3 -66 138 -147 300 -96 190 -153 294 -163 294 -10 0 -67 -104
-163 -295z"/>
</g>
</svg>
