<?xml version="1.0" encoding="utf-8"?>
<!-- Generator: Adobe Illustrator 19.1.0, SVG Export Plug-In . SVG Version: 6.00 Build 0)  -->
<svg version="1.1" id="Layer_1" xmlns="http://www.w3.org/2000/svg" xmlns:xlink="http://www.w3.org/1999/xlink" x="0px" y="0px"
	 viewBox="0 0 300 140" style="enable-background:new 0 0 300 140;" xml:space="preserve">
<style type="text/css">
	.st0{fill:#262626;}
	.st1{fill:#EF4A5F;}
	.st2{fill:#5CC9E6;}
	.st3{fill:#FED757;}
</style>
<rect y="124" class="st1" width="62" height="16"/>
<g>
	<path class="st0" d="M37.8,34.6c-7.6,0-12.8,3.7-15.8,8.1C22,41.2,22,0,22,0h-1.4C20.6,0,14,4.2,0,7.6V10h3.4
		c3.6,0,3.2,3.2,3.2,8.2L6.5,79.3C6.5,87.3,4,91,4,91v3c6,0,18.2,0,25.3,0c19.5,0,31.4-17.1,31.4-32.6C60.7,48.1,53,34.6,37.8,34.6z
		 M28,87.4c-3.8,0-6-1.2-6-1.2v-40c3-1.2,5.6-1.8,8-1.8c10.2,0,14.3,10.6,14.3,20.9C44.3,77.1,38.9,87.4,28,87.4z"/>
	<path class="st0" d="M87.9,83.8c0-1.3,0.2-83.8,0.2-83.8h-1.5c0,0-6.6,4.2-20.6,7.6V10h3.4c3.4,0,3.6,3.6,3.6,8.2
		c0,0,0,62.4,0,64.8c0,5.5-3,6.4-6,6.4V94h27c0,0,0-2.7,0-4.5C92,89.5,87.9,89.2,87.9,83.8z"/>
	<path class="st0" d="M298.1,90.9c-2.9-0.3-7.7-3.2-12.5-9.2l-19.3-24.9l12.6-11.1c4.3-3.9,12.3-6.8,12.3-6.8l0.1-2.9H268v4.1
		c2,0.6,3.7,1.2,3.8,2.7c0.1,1.6-1.2,2.8-4.9,6.3c0,0-12.7,10.2-13.2,10.7c-0.5,0.4-2,0.5-2-0.6c0-1,0.1-59.2,0.1-59.2h-1.5
		c0,0-6.4,4.2-21.4,7.6V10h4.5c3.6,0,3.5,5.4,3.5,10.5c0,0.5,0,62,0,63c0,4.1-2,6-7,6v3.8l28,0c0,0,0-2,0-3.8c-3,0-6.3-1-6.3-5.9
		c0-0.8,0-17.6,0-18.1c0-0.6,1.5-0.9,2-0.2c0.6,0.8,16.3,19.7,16.8,20.2c3.2,3.7,6,8.6,8.6,8.6c1.2,0,19.9,0,19.9,0v-3L298.1,90.9z"
		/>
	<path class="st0" d="M218,83.5c0-1,0-31.5,0-31.5c0-11.9-5.6-16.6-14.1-16.6c-9,0-17.9,7.5-20.9,11.7c0-6.1,0-12.1,0-12.1h-1.5
		c0,0-6.5,5.2-20.5,8.7V46h3.8c3.6,0,3.2,3.2,3.2,8.3v0c0,0,0,28.2,0,29.2c0,4.2-2,6-6,6V94h16h11.4H189c0,0,0-2.7,0-4.5
		c-2,0-6-1-6-5.9c0-0.9,0-32.7,0-32.7c4-3.1,9-4.6,13-4.6c4.8,0,6.9,2,6.9,10.6c0,0,0,25.8,0,26.7c0,4.6-3.2,6.4-6.5,6.4l0.1,4.1
		h15.8h11h0.6c0,0,0-2.7,0-4.5C220.8,89.5,218,88.2,218,83.5z"/>
	<path class="st0" d="M149.7,87.4c-2.1,0-2.7-2.1-2.7-5.3c0,0,0-21.7,0-26.1c1-15-4.6-20.4-16.9-20.3c-1.9,0-2.2,0-3.3,0
		c-4.5,0-17.3,9.5-19.4,11c-1.3,1-2.4,1.7-2.6,2.8c-0.1,0.9,0.5,2.5,1.5,3.9l2.3,3.7l1.6-0.7c0,0,0.1,0,0.1,0
		c1.7-0.8,1.3-0.6,2.6-1.2c0.5-0.2,0.8-0.5,1-0.8c0.4-0.7,0.5-1.3,0.6-1.9c0.3-1.6,0.6-6.5,5.7-7.9c1.7-0.4,5.8-0.6,7.9,0.2
		c4.5,1.7,4.8,6.6,4.8,8.4c0,4.2,0,4.7,0,6.9c0,0-3.7,1.4-7.2,2.7c-8.3,3.1-24.3,6.9-24.3,17.7c0,9.2,6.6,13.5,13.8,13.6
		c10.5,0.2,17.7-8.6,18.7-9.1v2c0,4.7,3.4,7.3,9,7.3c8.1,0,13.4-5.9,13.4-5.9l-1.8-2.9C154.5,85.6,152,87.4,149.7,87.4z M122.2,85.6
		c-4.2,0-6.6-3.1-6.6-7c0-7,6.8-10.3,13-12.4c2.5-0.8,4.7-1.6,4.7-1.6l0,14.8C130.3,83.5,125.5,85.6,122.2,85.6z"/>
</g>
</svg>
